<svg width="100" height="100" viewBox="0 0 100 100" fill="none" xmlns="http://www.w3.org/2000/svg">
<path d="M57.0859 6.25H70.3125V3.125H56.25C55.9928 3.12496 55.7396 3.1884 55.5128 3.3097C55.286 3.43099 55.0927 3.60638 54.95 3.82031L51.825 8.50781L54.425 10.2422L57.0859 6.25Z" fill="white"/>
<path d="M42.9141 93.7499H29.6875V96.8749H43.75C44.0072 96.875 44.2604 96.8115 44.4872 96.6902C44.7139 96.5689 44.9073 96.3936 45.05 96.1796L48.175 91.4921L45.575 89.7578L42.9141 93.7499Z" fill="white"/>
<path d="M67.1875 37.5C61.7504 37.493 56.4182 38.9968 51.7859 41.8438L50.975 40.7078C51.317 39.9919 51.62 39.258 51.8828 38.5094L58.0703 37.4781C58.4349 37.4171 58.766 37.2289 59.0049 36.9468C59.2438 36.6647 59.3749 36.3071 59.375 35.9375V26.5625C59.3749 26.1929 59.2438 25.8353 59.0049 25.5532C58.766 25.2711 58.4349 25.0829 58.0703 25.0219L51.8828 23.9906C51.62 23.242 51.317 22.5081 50.975 21.7922L54.6188 16.6906C54.8335 16.3896 54.9346 16.0222 54.904 15.6537C54.8733 15.2852 54.713 14.9396 54.4516 14.6781L47.8219 8.04844C47.5604 7.78695 47.2148 7.62665 46.8463 7.59604C46.4778 7.56543 46.1104 7.66649 45.8094 7.88125L40.7078 11.525C39.9917 11.1857 39.2578 10.8852 38.5094 10.625L37.4781 4.4375C37.4188 4.07151 37.2313 3.73854 36.949 3.4981C36.6668 3.25766 36.3083 3.12541 35.9375 3.125H26.5625C26.1929 3.12511 25.8353 3.25625 25.5532 3.49512C25.2711 3.73399 25.0829 4.06513 25.0219 4.42969L23.9906 10.6172C23.242 10.88 22.5081 11.183 21.7922 11.525L16.6906 7.88125C16.3896 7.66649 16.0222 7.56543 15.6537 7.59604C15.2852 7.62665 14.9396 7.78695 14.6781 8.04844L8.04844 14.6781C7.78695 14.9396 7.62665 15.2852 7.59604 15.6537C7.56543 16.0222 7.66649 16.3896 7.88125 16.6906L11.5422 21.8156C11.203 22.5216 10.904 23.2462 10.6469 23.9859L4.42969 25.0219C4.06513 25.0829 3.73399 25.2711 3.49512 25.5532C3.25625 25.8353 3.12511 26.1929 3.125 26.5625V35.9375C3.12511 36.3071 3.25625 36.6647 3.49512 36.9468C3.73399 37.2289 4.06513 37.4171 4.42969 37.4781L10.6453 38.5141C10.9013 39.2577 11.1949 39.9878 11.525 40.7016L7.88125 45.8094C7.66649 46.1104 7.56543 46.4778 7.59604 46.8463C7.62665 47.2148 7.78695 47.5604 8.04844 47.8219L14.6781 54.4516C14.9396 54.713 15.2852 54.8733 15.6537 54.904C16.0222 54.9346 16.3896 54.8335 16.6906 54.6188L21.7922 50.975C22.5081 51.317 23.242 51.62 23.9906 51.8828L25.0219 58.0703C25.0829 58.4349 25.2711 58.766 25.5532 59.0049C25.8353 59.2438 26.1929 59.3749 26.5625 59.375H35.9375C36.3071 59.3749 36.6647 59.2438 36.9468 59.0049C37.2289 58.766 37.4171 58.4349 37.4781 58.0703L38.5094 51.8828C39.258 51.62 39.9919 51.317 40.7078 50.975L41.8438 51.7859C38.9968 56.4182 37.493 61.7504 37.5 67.1875C37.5 73.0591 39.2411 78.7989 42.5032 83.681C45.7654 88.5631 50.4019 92.3682 55.8266 94.6152C61.2513 96.8622 67.2204 97.4501 72.9792 96.3046C78.7381 95.1591 84.0279 92.3316 88.1797 88.1797C92.3316 84.0279 95.1591 78.7381 96.3046 72.9792C97.4501 67.2204 96.8622 61.2513 94.6152 55.8266C92.3682 50.4019 88.5631 45.7654 83.681 42.5032C78.7989 39.2411 73.0591 37.5 67.1875 37.5ZM40.1062 47.7766C39.0104 48.3625 37.8589 48.8378 36.6688 49.1953C36.3888 49.2789 36.138 49.4394 35.9446 49.6584C35.7513 49.8774 35.6232 50.1462 35.575 50.4344L34.6141 56.25H27.8859L26.9172 50.4344C26.8689 50.1462 26.7409 49.8774 26.5475 49.6584C26.3542 49.4394 26.1034 49.2789 25.8234 49.1953C24.6333 48.8378 23.4818 48.3625 22.3859 47.7766C22.129 47.6386 21.8386 47.5753 21.5476 47.5938C21.2565 47.6123 20.9764 47.7118 20.7391 47.8812L15.9422 51.3062L11.1938 46.55L14.6187 41.7531C14.7882 41.5157 14.8877 41.2357 14.9062 40.9446C14.9247 40.6536 14.8614 40.3632 14.7234 40.1062C14.1384 38.9826 13.6558 37.8086 13.2812 36.5984C13.1877 36.3364 13.0258 36.1041 12.8123 35.9255C12.5989 35.747 12.3417 35.6287 12.0672 35.5828L6.25 34.6141V27.8859L12.0656 26.9172C12.3401 26.8713 12.5973 26.753 12.8108 26.5745C13.0242 26.3959 13.1861 26.1636 13.2797 25.9016C13.682 24.6738 14.1767 23.4782 14.7594 22.325C14.8787 22.0733 14.9286 21.7943 14.9039 21.5168C14.8792 21.2393 14.7807 20.9735 14.6187 20.7469L11.1938 15.95L15.95 11.1938L20.7469 14.6187C20.9843 14.7882 21.2643 14.8877 21.5554 14.9062C21.8464 14.9247 22.1368 14.8614 22.3937 14.7234C23.4896 14.1375 24.6411 13.6622 25.8312 13.3047C26.1112 13.2211 26.362 13.0606 26.5554 12.8416C26.7487 12.6226 26.8768 12.3538 26.925 12.0656L27.8859 6.25H34.6141L35.5828 12.0656C35.6311 12.3538 35.7591 12.6226 35.9525 12.8416C36.1458 13.0606 36.3966 13.2211 36.6766 13.3047C37.8667 13.6622 39.0182 14.1375 40.1141 14.7234C40.371 14.8614 40.6614 14.9247 40.9524 14.9062C41.2435 14.8877 41.5235 14.7882 41.7609 14.6187L46.5578 11.1938L51.3141 15.95L47.8891 20.7469C47.7197 20.9843 47.6201 21.2643 47.6016 21.5554C47.5831 21.8464 47.6464 22.1368 47.7844 22.3937C48.3704 23.4896 48.8456 24.6411 49.2031 25.8312C49.2868 26.1112 49.4472 26.362 49.6662 26.5554C49.8852 26.7487 50.1541 26.8768 50.4422 26.925L56.2578 27.8937V34.6219L50.4422 35.5906C50.1541 35.6389 49.8852 35.7669 49.6662 35.9603C49.4472 36.1536 49.2868 36.4045 49.2031 36.6844C48.8456 37.8745 48.3704 39.026 47.7844 40.1219C47.6464 40.3788 47.5831 40.6692 47.6016 40.9603C47.6201 41.2513 47.7197 41.5314 47.8891 41.7687L51.3141 46.5656L46.5578 51.3219L41.7609 47.8969C41.5242 47.7235 41.2435 47.6202 40.9509 47.599C40.6582 47.5777 40.3655 47.6392 40.1062 47.7766ZM68.75 93.6703V89.0625H65.625V93.6703C59.1424 93.2826 53.0266 90.5325 48.4345 85.9405C43.8425 81.3484 41.0924 75.2326 40.7047 68.75H45.3125V65.625H40.6828C40.9226 61.3765 42.1947 57.2505 44.3891 53.6047L45.8094 54.6188C46.1104 54.8335 46.4778 54.9346 46.8463 54.904C47.2148 54.8733 47.5604 54.713 47.8219 54.4516L54.4516 47.8219C54.713 47.5604 54.8733 47.2148 54.904 46.8463C54.9346 46.4778 54.8335 46.1104 54.6188 45.8094L53.6047 44.3891C57.2505 42.1947 61.3765 40.9226 65.625 40.6828V45.3125H68.75V40.7047C75.2326 41.0924 81.3484 43.8425 85.9405 48.4345C90.5325 53.0266 93.2826 59.1424 93.6703 65.625H89.0625V68.75H93.6703C93.2826 75.2326 90.5325 81.3484 85.9405 85.9405C81.3484 90.5325 75.2326 93.2826 68.75 93.6703Z" fill="white"/>
<path d="M68.75 48.4375H65.625V67.1875C65.625 67.6019 65.7896 67.9993 66.0826 68.2924C66.3757 68.5854 66.7731 68.75 67.1875 68.75H79.6875V65.625H68.75V48.4375Z" fill="white"/>
<path d="M39.0625 26.5625H32.8125V17.1875C32.8123 16.8307 32.69 16.4848 32.466 16.2072C32.2419 15.9295 31.9296 15.7369 31.581 15.6614C31.2323 15.5858 30.8683 15.6318 30.5495 15.7918C30.2306 15.9517 29.976 16.216 29.8281 16.5406L22.0156 33.7281C21.9074 33.9661 21.8606 34.2274 21.8795 34.4881C21.8985 34.7489 21.9825 35.0007 22.124 35.2206C22.2655 35.4404 22.4599 35.6212 22.6893 35.7465C22.9188 35.8717 23.1761 35.9374 23.4375 35.9375H29.6875V45.3125C29.6872 45.6695 29.8093 46.0159 30.0333 46.2939C30.2573 46.572 30.5698 46.7649 30.9187 46.8406C31.0277 46.8635 31.1387 46.8751 31.25 46.875C31.5499 46.8749 31.8434 46.7885 32.0955 46.6262C32.3476 46.4638 32.5477 46.2323 32.6719 45.9593L40.4844 28.7718C40.5926 28.5339 40.6394 28.2725 40.6205 28.0118C40.6015 27.751 40.5175 27.4992 40.376 27.2794C40.2345 27.0595 40.0401 26.8787 39.8106 26.7535C39.5812 26.6282 39.3239 26.5625 39.0625 26.5625ZM32.8125 38.0984V34.375C32.8125 33.9606 32.6479 33.5631 32.3548 33.2701C32.0618 32.9771 31.6644 32.8125 31.25 32.8125H25.8641L29.6875 24.4015V28.125C29.6875 28.5394 29.8521 28.9368 30.1451 29.2298C30.4382 29.5229 30.8356 29.6875 31.25 29.6875H36.6359L32.8125 38.0984Z" fill="white"/>
<path d="M32.8125 9.375H29.6875V12.5H32.8125V9.375Z" fill="white"/>
<path d="M16.8872 14.6778L14.6775 16.8875L16.8872 19.0972L19.0969 16.8875L16.8872 14.6778Z" fill="white"/>
<path d="M12.5 29.6875H9.375V32.8125H12.5V29.6875Z" fill="white"/>
<path d="M16.8863 43.4019L14.6766 45.6116L16.8863 47.8213L19.0961 45.6116L16.8863 43.4019Z" fill="white"/>
<path d="M32.8125 50H29.6875V53.125H32.8125V50Z" fill="white"/>
<path d="M45.6121 43.4028L43.4023 45.6125L45.6121 47.8222L47.8218 45.6125L45.6121 43.4028Z" fill="white"/>
<path d="M53.125 29.6875H50V32.8125H53.125V29.6875Z" fill="white"/>
<path d="M45.6129 14.6787L43.4032 16.8884L45.6129 19.0981L47.8226 16.8884L45.6129 14.6787Z" fill="white"/>
<path d="M82.8125 10.9375C81.5764 10.9375 80.368 11.3041 79.3402 11.9908C78.3124 12.6776 77.5113 13.6537 77.0383 14.7957C76.5652 15.9378 76.4414 17.1944 76.6826 18.4068C76.9238 19.6192 77.519 20.7328 78.3931 21.6069C79.2672 22.481 80.3808 23.0763 81.5932 23.3174C82.8056 23.5586 84.0622 23.4348 85.2043 22.9617C86.3463 22.4887 87.3224 21.6876 88.0092 20.6598C88.696 19.632 89.0625 18.4236 89.0625 17.1875C89.0625 15.5299 88.404 13.9402 87.2319 12.7681C86.0598 11.596 84.4701 10.9375 82.8125 10.9375ZM82.8125 20.3125C82.1944 20.3125 81.5903 20.1292 81.0763 19.7858C80.5624 19.4425 80.1619 18.9544 79.9254 18.3834C79.6889 17.8124 79.627 17.184 79.7476 16.5778C79.8681 15.9717 80.1658 15.4148 80.6028 14.9778C81.0398 14.5408 81.5967 14.2431 82.2028 14.1225C82.809 14.002 83.4374 14.0639 84.0084 14.3004C84.5794 14.5369 85.0675 14.9374 85.4109 15.4513C85.7542 15.9652 85.9375 16.5694 85.9375 17.1875C85.9375 18.0163 85.6083 18.8112 85.0222 19.3972C84.4362 19.9833 83.6413 20.3125 82.8125 20.3125Z" fill="white"/>
<path d="M95.6922 12.5469L94.6469 12.2859L95.2016 11.3625C95.3809 11.0635 95.4551 10.7132 95.4123 10.3672C95.3696 10.0212 95.2123 9.69945 94.9656 9.45313L90.5469 5.03437C90.3006 4.78768 89.9788 4.63044 89.6328 4.58769C89.2868 4.54494 88.9365 4.61912 88.6375 4.79844L87.7141 5.35313L87.4531 4.30781C87.3685 3.96993 87.1734 3.67001 86.8988 3.45571C86.6242 3.24141 86.2858 3.12501 85.9375 3.125H79.6875C79.3392 3.12501 79.0008 3.24141 78.7262 3.45571C78.4516 3.67001 78.2565 3.96993 78.1719 4.30781L77.9109 5.35313L76.9875 4.79844C76.6885 4.61912 76.3382 4.54494 75.9922 4.58769C75.6462 4.63044 75.3245 4.78768 75.0781 5.03437L70.6594 9.45313C70.4127 9.69945 70.2554 10.0212 70.2127 10.3672C70.1699 10.7132 70.2441 11.0635 70.4234 11.3625L70.9781 12.2859L69.9328 12.5469C69.5949 12.6315 69.295 12.8266 69.0807 13.1012C68.8664 13.3758 68.75 13.7142 68.75 14.0625V20.3125C68.75 20.6608 68.8664 20.9992 69.0807 21.2738C69.295 21.5484 69.5949 21.7435 69.9328 21.8281L70.9781 22.0891L70.4234 23.0125C70.2441 23.3115 70.1699 23.6618 70.2127 24.0078C70.2554 24.3538 70.4127 24.6755 70.6594 24.9219L75.0781 29.3406C75.3245 29.5873 75.6462 29.7446 75.9922 29.7873C76.3382 29.8301 76.6885 29.7559 76.9875 29.5766L77.9109 29.0219L78.1719 30.0672C78.2565 30.4051 78.4516 30.705 78.7262 30.9193C79.0008 31.1336 79.3392 31.25 79.6875 31.25H85.9375C86.2858 31.25 86.6242 31.1336 86.8988 30.9193C87.1734 30.705 87.3685 30.4051 87.4531 30.0672L87.7141 29.0219L88.6375 29.5766C88.9365 29.7559 89.2868 29.8301 89.6328 29.7873C89.9788 29.7446 90.3006 29.5873 90.5469 29.3406L94.9656 24.9219C95.2123 24.6755 95.3696 24.3538 95.4123 24.0078C95.4551 23.6618 95.3809 23.3115 95.2016 23.0125L94.6469 22.0891L95.6922 21.8281C96.0301 21.7435 96.33 21.5484 96.5443 21.2738C96.7586 20.9992 96.875 20.6608 96.875 20.3125V14.0625C96.875 13.7142 96.7586 13.3758 96.5443 13.1012C96.33 12.8266 96.0301 12.6315 95.6922 12.5469ZM93.75 19.0922L91.8422 19.5609C91.6054 19.6203 91.3858 19.7343 91.2011 19.8938C91.0163 20.0533 90.8715 20.2539 90.7782 20.4795C90.6849 20.7051 90.6458 20.9494 90.664 21.1928C90.6822 21.4362 90.7571 21.672 90.8828 21.8813L91.8938 23.5672L89.2 26.2609L87.5141 25.25C87.3048 25.1243 87.069 25.0493 86.8256 25.0312C86.5822 25.013 86.3379 25.0521 86.1123 25.1454C85.8867 25.2387 85.6862 25.3835 85.5266 25.5683C85.3671 25.753 85.2531 25.9726 85.1937 26.2094L84.7172 28.125H80.9078L80.4391 26.2172C80.3797 25.9804 80.2657 25.7608 80.1062 25.5761C79.9467 25.3913 79.7461 25.2465 79.5205 25.1532C79.2949 25.0599 79.0506 25.0208 78.8072 25.039C78.5638 25.0572 78.328 25.1321 78.1187 25.2578L76.4328 26.2688L73.7391 23.575L74.75 21.8891C74.8757 21.6798 74.9507 21.444 74.9688 21.2006C74.987 20.9572 74.9479 20.7129 74.8546 20.4873C74.7613 20.2617 74.6165 20.0612 74.4317 19.9016C74.247 19.7421 74.0274 19.6281 73.7906 19.5688L71.875 19.0922V15.2828L73.7828 14.8141C74.0196 14.7547 74.2392 14.6407 74.4239 14.4812C74.6087 14.3217 74.7535 14.1211 74.8468 13.8955C74.9401 13.6699 74.9792 13.4256 74.961 13.1822C74.9428 12.9388 74.8679 12.703 74.7422 12.4937L73.7312 10.8078L76.425 8.11406L78.1109 9.125C78.3203 9.25071 78.5562 9.3256 78.7997 9.34367C79.0432 9.36174 79.2876 9.32248 79.5132 9.22905C79.7388 9.13562 79.9393 8.99061 80.0988 8.80566C80.2582 8.62071 80.3721 8.40097 80.4313 8.16406L80.9 6.25781H84.7094L85.1781 8.16406C85.2373 8.40097 85.3512 8.62071 85.5106 8.80566C85.67 8.99061 85.8706 9.13562 86.0962 9.22905C86.3218 9.32248 86.5662 9.36174 86.8097 9.34367C87.0532 9.3256 87.2891 9.25071 87.4984 9.125L89.1844 8.11406L91.8781 10.8078L90.8672 12.4937C90.7415 12.703 90.6665 12.9388 90.6484 13.1822C90.6302 13.4256 90.6693 13.6699 90.7626 13.8955C90.8559 14.1211 91.0007 14.3217 91.1855 14.4812C91.3702 14.6407 91.5898 14.7547 91.8266 14.8141L93.7344 15.2828L93.75 19.0922Z" fill="white"/>
<path d="M17.1875 76.5625C15.9514 76.5625 14.743 76.9291 13.7152 77.6158C12.6874 78.3026 11.8863 79.2787 11.4133 80.4207C10.9402 81.5628 10.8164 82.8194 11.0576 84.0318C11.2988 85.2442 11.894 86.3578 12.7681 87.2319C13.6422 88.106 14.7558 88.7012 15.9682 88.9424C17.1806 89.1836 18.4372 89.0598 19.5793 88.5867C20.7213 88.1137 21.6974 87.3126 22.3842 86.2848C23.0709 85.257 23.4375 84.0486 23.4375 82.8125C23.4375 81.1549 22.779 79.5652 21.6069 78.3931C20.4348 77.221 18.8451 76.5625 17.1875 76.5625ZM17.1875 85.9375C16.5694 85.9375 15.9653 85.7542 15.4513 85.4108C14.9374 85.0675 14.5369 84.5794 14.3004 84.0084C14.0639 83.4374 14.002 82.809 14.1225 82.2028C14.2431 81.5966 14.5408 81.0398 14.9778 80.6028C15.4148 80.1657 15.9717 79.8681 16.5778 79.7475C17.184 79.627 17.8124 79.6889 18.3834 79.9254C18.9544 80.1619 19.4425 80.5624 19.7858 81.0763C20.1292 81.5902 20.3125 82.1944 20.3125 82.8125C20.3125 83.6413 19.9833 84.4362 19.3972 85.0222C18.8112 85.6083 18.0163 85.9375 17.1875 85.9375Z" fill="white"/>
<path d="M29.5766 88.6375L29.0219 87.7141L30.0672 87.4531C30.4051 87.3685 30.705 87.1734 30.9193 86.8988C31.1336 86.6242 31.25 86.2858 31.25 85.9375V79.6875C31.25 79.3392 31.1336 79.0008 30.9193 78.7262C30.705 78.4516 30.4051 78.2565 30.0672 78.1719L29.0219 77.9109L29.5766 76.9875C29.7559 76.6885 29.8301 76.3382 29.7873 75.9922C29.7446 75.6462 29.5873 75.3245 29.3406 75.0781L24.9219 70.6594C24.6755 70.4127 24.3538 70.2554 24.0078 70.2127C23.6618 70.1699 23.3115 70.2441 23.0125 70.4234L22.0891 70.9781L21.8281 69.9328C21.7435 69.5949 21.5484 69.295 21.2738 69.0807C20.9992 68.8664 20.6608 68.75 20.3125 68.75H14.0625C13.7142 68.75 13.3758 68.8664 13.1012 69.0807C12.8266 69.295 12.6315 69.5949 12.5469 69.9328L12.2859 70.9781L11.3625 70.4234C11.0635 70.2441 10.7132 70.1699 10.3672 70.2127C10.0212 70.2554 9.69945 70.4127 9.45313 70.6594L5.03437 75.0781C4.78768 75.3245 4.63044 75.6462 4.58769 75.9922C4.54494 76.3382 4.61912 76.6885 4.79844 76.9875L5.35313 77.9109L4.30781 78.1719C3.96993 78.2565 3.67001 78.4516 3.45571 78.7262C3.24141 79.0008 3.12501 79.3392 3.125 79.6875V85.9375C3.12501 86.2858 3.24141 86.6242 3.45571 86.8988C3.67001 87.1734 3.96993 87.3685 4.30781 87.4531L5.35313 87.7141L4.79844 88.6375C4.61912 88.9365 4.54494 89.2868 4.58769 89.6328C4.63044 89.9788 4.78768 90.3006 5.03437 90.5469L9.45313 94.9656C9.69945 95.2123 10.0212 95.3696 10.3672 95.4123C10.7132 95.4551 11.0635 95.3809 11.3625 95.2016L12.2859 94.6469L12.5469 95.6922C12.6315 96.0301 12.8266 96.33 13.1012 96.5443C13.3758 96.7586 13.7142 96.875 14.0625 96.875H20.3125C20.6608 96.875 20.9992 96.7586 21.2738 96.5443C21.5484 96.33 21.7435 96.0301 21.8281 95.6922L22.0891 94.6469L23.0125 95.2016C23.3115 95.3809 23.6618 95.4551 24.0078 95.4123C24.3538 95.3696 24.6755 95.2123 24.9219 94.9656L29.3406 90.5469C29.5873 90.3006 29.7446 89.9788 29.7873 89.6328C29.8301 89.2868 29.7559 88.9365 29.5766 88.6375ZM28.125 84.7172L26.2172 85.1859C25.9804 85.2453 25.7608 85.3593 25.5761 85.5188C25.3913 85.6783 25.2465 85.8789 25.1532 86.1045C25.0599 86.3301 25.0208 86.5744 25.039 86.8178C25.0572 87.0612 25.1321 87.297 25.2578 87.5063L26.2688 89.1922L23.575 91.8859L21.8891 90.875C21.6798 90.7493 21.444 90.6743 21.2006 90.6562C20.9572 90.638 20.7129 90.6771 20.4873 90.7704C20.2617 90.8637 20.0612 91.0085 19.9016 91.1933C19.7421 91.378 19.6281 91.5976 19.5688 91.8344L19.0922 93.75H15.2828L14.8141 91.8422C14.7547 91.6054 14.6407 91.3858 14.4812 91.2011C14.3217 91.0163 14.1211 90.8715 13.8955 90.7782C13.6699 90.6849 13.4256 90.6458 13.1822 90.664C12.9388 90.6822 12.703 90.7571 12.4937 90.8828L10.8078 91.8938L8.10625 89.2L9.11719 87.5141C9.2429 87.3048 9.31785 87.069 9.33601 86.8256C9.35418 86.5822 9.31506 86.3379 9.22179 86.1123C9.12852 85.8867 8.98369 85.6862 8.79893 85.5266C8.61416 85.3671 8.39459 85.2531 8.15781 85.1937L6.25 84.7172V80.9078L8.15781 80.4391C8.39459 80.3797 8.61416 80.2657 8.79893 80.1062C8.98369 79.9467 9.12852 79.7461 9.22179 79.5205C9.31506 79.2949 9.35418 79.0506 9.33601 78.8072C9.31785 78.5638 9.2429 78.328 9.11719 78.1187L8.10625 76.4328L10.8 73.7391L12.4859 74.75C12.6953 74.8757 12.9312 74.9506 13.1747 74.9687C13.4182 74.9867 13.6626 74.9475 13.8882 74.8541C14.1138 74.7606 14.3143 74.6156 14.4738 74.4307C14.6332 74.2457 14.7471 74.026 14.8062 73.7891L15.275 71.8828H19.0844L19.5531 73.7891C19.6123 74.026 19.7262 74.2457 19.8856 74.4307C20.045 74.6156 20.2456 74.7606 20.4712 74.8541C20.6968 74.9475 20.9412 74.9867 21.1847 74.9687C21.4282 74.9506 21.6641 74.8757 21.8734 74.75L23.5594 73.7391L26.2531 76.4328L25.2422 78.1187C25.1165 78.328 25.0415 78.5638 25.0234 78.8072C25.0052 79.0506 25.0443 79.2949 25.1376 79.5205C25.2309 79.7461 25.3757 79.9467 25.5605 80.1062C25.7452 80.2657 25.9648 80.3797 26.2016 80.4391L28.1094 80.9078L28.125 84.7172Z" fill="white"/>
</svg>
