<svg width="100" height="100" viewBox="0 0 100 100" fill="none" xmlns="http://www.w3.org/2000/svg">
<g clip-path="url(#clip0)">
<path d="M88.6835 37.1581H82.3294V27.1312C82.3209 20.5579 76.9948 15.2308 70.4205 15.2233H53.7141C51.7963 15.2242 49.9435 14.5301 48.4979 13.2717L43.1746 8.63778C41.1139 6.84515 38.4757 5.8576 35.7445 5.8576H11.9079C5.33463 5.86513 0.00752416 11.1922 0 17.7655V80.5481C0.00846467 87.8334 5.7099 93.8423 12.9848 94.2336V94.2524H80.4502C85.8375 94.2421 90.4752 90.4433 91.5446 85.1623L99.7713 50.7317L99.7854 50.6668C100.442 47.3458 99.5757 43.9054 97.4266 41.2898C95.2766 38.6742 92.0694 37.1581 88.6835 37.1581ZM3.37177 80.5481V17.7655C3.37741 13.0526 7.19592 9.23407 11.9089 9.22843H35.7454C37.6631 9.22843 39.516 9.92159 40.9625 11.181L46.2858 15.814C48.3456 17.6066 50.9837 18.5941 53.7141 18.5941H70.4205C75.1335 18.5998 78.9529 22.4192 78.9586 27.1322V37.1581H77.3568C76.5395 32.7903 72.7295 29.6217 68.2855 29.6152H67.7287C66.9096 25.1571 63.0261 21.917 58.4928 21.9104H19.7284C13.4814 21.9179 8.4186 26.9798 8.41201 33.2267V89.4181C5.28761 87.554 3.37365 84.1851 3.37177 80.5481ZM68.2855 32.986C70.8701 32.9888 73.149 34.6827 73.8957 37.1581H45.2691C40.0332 37.1421 35.4764 40.733 34.266 45.8269L23.7782 82.8608L23.7594 82.9314C23.3653 84.6064 22.5593 86.1564 21.4138 87.4402V40.9315C21.4185 36.5449 24.9736 32.9907 29.3593 32.986H68.2855ZM11.7828 90.6991V33.2267C11.7875 28.8402 15.3427 25.2859 19.7284 25.2812H58.4928C61.1667 25.2841 63.5199 27.0485 64.2714 29.6152H29.3593C23.1123 29.6217 18.0505 34.6846 18.0429 40.9315V89.9335C16.0867 90.8336 13.8981 91.1007 11.7828 90.6991ZM96.4852 49.9821L88.2594 84.4099L88.2453 84.4757C87.5032 88.1945 84.2415 90.8741 80.4502 90.8816H22.7267C24.8692 89.0081 26.3741 86.5138 27.0315 83.7449L37.5192 46.7119L37.538 46.6414C38.3779 43.0533 41.5832 40.5186 45.2691 40.5289H88.6835C91.0555 40.5289 93.3024 41.588 94.812 43.4173C96.3215 45.2466 96.9347 47.6543 96.4852 49.9831V49.9821Z" fill="white"/>
</g>
<defs>
<clipPath id="clip0">
<rect width="100" height="100" fill="white"/>
</clipPath>
</defs>
</svg>
