<svg width="100" height="100" viewBox="0 0 100 100" fill="none" xmlns="http://www.w3.org/2000/svg">
<g clip-path="url(#clip0)">
<path d="M59.1615 50.0819L98.0996 11.1427C100.634 8.60985 100.634 4.51461 98.0996 1.98178C95.5667 -0.551055 91.4715 -0.551055 88.9387 1.98178L49.9995 40.921L11.0614 1.98178C8.52741 -0.551055 4.43335 -0.551055 1.90052 1.98178C-0.633505 4.51461 -0.633505 8.60985 1.90052 11.1427L40.8385 50.0819L1.90052 89.0211C-0.633505 91.5539 -0.633505 95.6492 1.90052 98.182C3.16278 99.4454 4.82247 100.08 6.48097 100.08C8.13947 100.08 9.79798 99.4454 11.0614 98.182L49.9995 59.2428L88.9387 98.182C90.2021 99.4454 91.8606 100.08 93.5191 100.08C95.1776 100.08 96.8361 99.4454 98.0996 98.182C100.634 95.6492 100.634 91.5539 98.0996 89.0211L59.1615 50.0819Z" fill="white"/>
</g>
<defs>
<clipPath id="clip0">
<rect width="100" height="100" fill="white"/>
</clipPath>
</defs>
</svg>
