<svg width="100" height="100" viewBox="0 0 100 100" fill="none" xmlns="http://www.w3.org/2000/svg">
<path d="M38.5414 33.3336H7.29141C3.27072 33.3336 0 30.0629 0 26.0414V7.29141C0 3.27072 3.27072 0 7.29141 0H38.5414C42.5629 0 45.8336 3.27072 45.8336 7.29141V26.0414C45.8336 30.0629 42.5629 33.3336 38.5414 33.3336ZM7.29141 6.25C6.71692 6.25 6.25 6.71692 6.25 7.29141V26.0414C6.25 26.6167 6.71692 27.0836 7.29141 27.0836H38.5414C39.1167 27.0836 39.5836 26.6167 39.5836 26.0414V7.29141C39.5836 6.71692 39.1167 6.25 38.5414 6.25H7.29141Z" fill="white"/>
<path d="M38.5414 100H7.29141C3.27072 100 0 96.7292 0 92.7086V48.9586C0 44.9371 3.27072 41.6664 7.29141 41.6664H38.5414C42.5629 41.6664 45.8336 44.9371 45.8336 48.9586V92.7086C45.8336 96.7292 42.5629 100 38.5414 100ZM7.29141 47.9164C6.71692 47.9164 6.25 48.3833 6.25 48.9586V92.7086C6.25 93.2831 6.71692 93.75 7.29141 93.75H38.5414C39.1167 93.75 39.5836 93.2831 39.5836 92.7086V48.9586C39.5836 48.3833 39.1167 47.9164 38.5414 47.9164H7.29141Z" fill="white"/>
<path d="M92.7086 100H61.4586C57.4371 100 54.1664 96.7292 54.1664 92.7086V73.9586C54.1664 69.9371 57.4371 66.6664 61.4586 66.6664H92.7086C96.7293 66.6664 100 69.9371 100 73.9586V92.7086C100 96.7292 96.7293 100 92.7086 100ZM61.4586 72.9164C60.8833 72.9164 60.4164 73.3833 60.4164 73.9586V92.7086C60.4164 93.2831 60.8833 93.75 61.4586 93.75H92.7086C93.2831 93.75 93.75 93.2831 93.75 92.7086V73.9586C93.75 73.3833 93.2831 72.9164 92.7086 72.9164H61.4586Z" fill="white"/>
<path d="M92.7086 58.3336H61.4586C57.4371 58.3336 54.1664 55.0629 54.1664 51.0414V7.29141C54.1664 3.27072 57.4371 0 61.4586 0H92.7086C96.7293 0 100 3.27072 100 7.29141V51.0414C100 55.0629 96.7293 58.3336 92.7086 58.3336ZM61.4586 6.25C60.8833 6.25 60.4164 6.71692 60.4164 7.29141V51.0414C60.4164 51.6167 60.8833 52.0836 61.4586 52.0836H92.7086C93.2831 52.0836 93.75 51.6167 93.75 51.0414V7.29141C93.75 6.71692 93.2831 6.25 92.7086 6.25H61.4586Z" fill="white"/>
</svg>
