<svg width="100" height="100" viewBox="0 0 100 100" fill="none" xmlns="http://www.w3.org/2000/svg">
<g clip-path="url(#clip0)">
<path d="M63.7935 36.2302C62.4999 36.2302 61.4515 37.2785 61.4515 38.5721V82.8344C61.4515 84.127 62.4999 85.1763 63.7935 85.1763C65.087 85.1763 66.1354 84.127 66.1354 82.8344V38.5721C66.1354 37.2785 65.087 36.2302 63.7935 36.2302Z" fill="white"/>
<path d="M36.1589 36.2302C34.8654 36.2302 33.817 37.2785 33.817 38.5721V82.8344C33.817 84.127 34.8654 85.1763 36.1589 85.1763C37.4525 85.1763 38.5009 84.127 38.5009 82.8344V38.5721C38.5009 37.2785 37.4525 36.2302 36.1589 36.2302Z" fill="white"/>
<path d="M16.0185 29.7707V87.4705C16.0185 90.8809 17.269 94.0836 19.4536 96.3816C21.6281 98.686 24.6543 99.9942 27.8214 99.9997H72.1311C75.2991 99.9942 78.3253 98.686 80.4989 96.3816C82.6834 94.0836 83.934 90.8809 83.934 87.4705V29.7707C88.2766 28.618 91.0905 24.4227 90.5096 19.9666C89.9278 15.5115 86.1323 12.1789 81.6387 12.178H69.6483V9.25056C69.662 6.78881 68.6887 4.42494 66.9459 2.68588C65.2032 0.947746 62.8357 -0.0201233 60.374 2.53241e-06H39.5785C37.1167 -0.0201233 34.7492 0.947746 33.0065 2.68588C31.2638 4.42494 30.2904 6.78881 30.3042 9.25056V12.178H18.3137C13.8202 12.1789 10.0246 15.5115 9.44283 19.9666C8.86192 24.4227 11.6759 28.618 16.0185 29.7707ZM72.1311 95.3159H27.8214C23.8172 95.3159 20.7023 91.8762 20.7023 87.4705V29.9765H79.2501V87.4705C79.2501 91.8762 76.1352 95.3159 72.1311 95.3159ZM34.988 9.25056C34.9724 8.03112 35.4518 6.85742 36.3172 5.99658C37.1817 5.13575 38.3581 4.66279 39.5785 4.68383H60.374C61.5943 4.66279 62.7708 5.13575 63.6353 5.99658C64.5007 6.8565 64.98 8.03112 64.9645 9.25056V12.178H34.988V9.25056ZM18.3137 16.8618H81.6387C83.9669 16.8618 85.8542 18.749 85.8542 21.0772C85.8542 23.4054 83.9669 25.2927 81.6387 25.2927H18.3137C15.9855 25.2927 14.0983 23.4054 14.0983 21.0772C14.0983 18.749 15.9855 16.8618 18.3137 16.8618Z" fill="white"/>
<path d="M49.9762 36.2302C48.6826 36.2302 47.6343 37.2785 47.6343 38.5721V82.8344C47.6343 84.127 48.6826 85.1763 49.9762 85.1763C51.2697 85.1763 52.3181 84.127 52.3181 82.8344V38.5721C52.3181 37.2785 51.2697 36.2302 49.9762 36.2302Z" fill="white"/>
</g>
<defs>
<clipPath id="clip0">
<rect width="100" height="100" fill="white"/>
</clipPath>
</defs>
</svg>
