<svg width="100" height="100" viewBox="0 0 100 100" fill="none" xmlns="http://www.w3.org/2000/svg">
<g clip-path="url(#clip0)">
<path d="M98.5352 82.4022C97.726 82.4022 97.0703 83.0581 97.0703 83.867V93.6547C97.0703 93.7906 96.9598 93.9014 96.8236 93.9014H91.2576V72.4997C91.2576 71.6907 90.602 71.0348 89.7928 71.0348C88.9836 71.0348 88.328 71.6907 88.328 72.4997V93.9016H77.5721L80.4832 90.6991C80.9329 90.2043 81.1448 89.5018 81.0504 88.8196C81.0483 88.8049 81.0461 88.7905 81.0436 88.7758L77.7711 69.4407L78.3733 68.5343L78.5301 68.6456C79.067 69.027 79.7518 69.1661 80.4143 69.0007C81.0649 68.838 81.61 68.4003 81.9096 67.8003V67.8001L85.2395 61.1261L92.8459 64.072C93.1461 64.2024 97.0695 66.0015 97.0695 70.6823V77.0307C97.0697 77.8399 97.7254 78.4958 98.5346 78.4958C99.3438 78.4958 99.9994 77.8399 99.9994 77.0309V70.6825C99.9994 63.9227 94.2016 61.4616 93.9549 61.3601C93.9455 61.3561 93.9363 61.3524 93.927 61.3489L80.9745 56.3325V53.6646C82.9963 52.038 84.4162 49.6937 84.8426 47.0212C85.851 46.8946 86.7866 46.4909 87.5629 45.8232C88.6762 44.8657 89.3151 43.4726 89.3151 42.0013C89.3151 40.8269 88.9074 39.7031 88.1776 38.8105V34.8578C88.1776 27.1222 81.8842 20.8291 74.1491 20.8291C70.6762 20.8291 67.4966 22.1002 65.044 24.1982C65.0124 23.0758 64.6106 22.0062 63.9104 21.15V17.1974C63.9104 9.46191 57.6171 3.16876 49.8819 3.16876C42.1464 3.16876 35.8533 9.46211 35.8533 17.1974V21.2531C35.1492 22.0945 34.7552 23.109 34.7204 24.1857C33.1556 22.8484 31.2828 21.8416 29.1955 21.292C28.4119 21.0857 27.6117 21.5531 27.4056 22.3355C27.1996 23.1179 27.6667 23.9193 28.4492 24.1254C33.315 25.4066 36.7134 29.8201 36.7134 34.8576V37.0484C36.6501 37.0353 36.447 37.0003 36.4392 36.9992C36.4193 36.5857 36.3146 36.3331 36.0892 36.0089C35.7142 35.4701 35.0408 34.7988 32.8747 32.4707C32.1029 31.6416 30.8544 31.4894 29.9068 32.1089C26.1968 34.5324 21.6896 35.7675 17.5068 35.522C16.1443 35.4421 15.2933 36.0408 14.9306 37.0218C14.8982 37.0271 14.5359 37.1001 14.5158 37.105V34.8576C14.5158 30.0003 17.7615 25.6306 22.4086 24.2308C23.1832 23.9976 23.622 23.1804 23.3888 22.4056C23.1554 21.6308 22.3371 21.192 21.5634 21.4256C18.7373 22.2767 16.1968 24.049 14.4107 26.4154C12.5625 28.8634 11.5857 31.7828 11.5857 34.8578V38.9136C10.8478 39.7953 10.4488 40.8667 10.4488 42.0013C10.4488 44.5091 12.2965 46.6962 14.9289 47.0224C15.3601 49.6323 16.7761 52.1353 19.0109 53.837V56.3333L6.07284 61.3493C6.06366 61.3528 6.05448 61.3565 6.0453 61.3602C5.79804 61.4616 0 63.9226 0 70.6823V93.6547C0 95.4065 1.425 96.8313 3.17675 96.8313H48.2882C48.9187 96.8313 49.5052 96.6444 50.0001 96.3264C50.4946 96.6444 51.0813 96.8313 51.712 96.8313H96.8236C98.5752 96.8313 100 95.4065 100 93.6547V83.867C100 83.0581 99.3443 82.4022 98.5352 82.4022ZM14.7855 43.9956C13.9267 43.6839 13.3781 42.8896 13.3781 42.0009C13.3781 41.139 14.0031 40.4308 14.7855 40.0947V43.9956ZM82.4957 60.0634L79.6204 65.8263C79.62 65.8259 76.4264 63.5577 76.3811 63.5255C77.7588 61.8247 77.1116 62.6237 79.9764 59.0878L82.4957 60.0634ZM74.2635 61.4849L70.4751 56.8085V55.4032C71.7065 55.829 73.0331 56.0255 74.2817 56.0259C74.2819 56.0259 74.2823 56.0259 74.2825 56.0259H74.2827C75.5737 56.0257 76.8807 55.7806 78.0448 55.3425V56.8175L74.2635 61.4849ZM75.9835 66.837L75.4446 67.6481H73.0831L72.5442 66.837L74.2639 65.6157L75.9835 66.837ZM49.9962 43.8243L46.2077 39.148V37.7427C47.4343 38.1667 48.7595 38.365 50.0144 38.3654C50.0146 38.3654 50.0149 38.3654 50.0151 38.3654H50.0153C51.304 38.3654 52.6108 38.121 53.7774 37.6822V39.157L49.9962 43.8243ZM51.7159 49.1769L51.1771 49.988H48.8155L48.2767 49.1769L49.9964 47.9556L51.7159 49.1769ZM38.4605 29.2214C38.6999 29.2867 38.946 29.331 39.1958 29.3619C39.6271 31.9718 41.0431 34.4748 43.2778 36.1765V38.6728L40.2894 39.8312C40.1161 39.4673 39.8995 39.1245 39.6425 38.8103V34.8578C39.6425 32.8699 39.2238 30.9589 38.4605 29.2214ZM57.7804 27.6703C57.7804 31.958 54.2827 35.4351 50.0153 35.4351C45.2007 35.4351 41.9831 31.7037 41.9831 27.6703V20.8086C46.6087 20.9937 51.414 19.6228 55.3427 17.1775C56.6636 18.5939 57.4495 19.4168 57.7806 19.7988C57.7804 23.4459 57.7804 24.8541 57.7804 27.6703ZM60.5755 29.3609C60.8239 29.3296 61.0688 29.2851 61.3069 29.2201C60.546 30.9466 60.1202 32.8529 60.1202 34.8578V38.9134C59.895 39.1824 59.7013 39.4689 59.5409 39.7695L56.7073 38.6722V36.0042C58.729 34.3775 60.1491 32.0332 60.5755 29.3609ZM44.2782 41.4296L47.8743 45.8683L45.422 47.6101C45.4206 47.6111 45.4196 47.612 45.4183 47.613L44.64 48.1659L41.7644 42.4033L44.2782 41.4296ZM53.3677 44.3171L55.7089 41.4273L58.2282 42.4029L55.353 48.1659L54.5729 47.612C54.5722 47.6114 54.5714 47.6107 54.5706 47.6101L52.1138 45.865L53.3677 44.3171ZM54.106 50.8739L54.2628 50.9853C54.8104 51.3743 55.4977 51.5028 56.147 51.3403C56.7975 51.1777 57.3427 50.74 57.6423 50.14V50.1398L60.1145 45.1849C60.9639 46.2318 62.1925 46.8685 63.4577 47.0265C63.9046 49.8273 65.4184 52.2175 67.5454 53.837V56.3331L55.0915 61.1614L53.5036 51.7806L54.106 50.8739ZM68.5456 59.0899L72.1417 63.5286C70.5694 64.6456 68.9887 65.7684 68.9073 65.8263L66.0317 60.0636L68.5456 59.0899ZM82.0475 45.3308C82.0479 49.5138 78.6508 53.0956 74.2827 53.0956C69.3038 53.0956 66.2505 49.196 66.2505 45.3308V38.4691C70.843 38.6525 75.6545 37.2998 79.6098 34.838C80.9307 36.2544 81.7166 37.0773 82.0477 37.4593C82.0475 41.1062 82.0475 42.5146 82.0475 45.3308ZM86.3854 42.0011C86.3854 42.8913 85.835 43.6841 84.978 43.9956V40.0107C85.8639 40.3333 86.3854 41.1429 86.3854 42.0011ZM63.0501 34.8576C63.0501 28.7377 68.0292 23.7588 74.1489 23.7588C80.2688 23.7588 85.2475 28.7379 85.2475 34.8576V37.0484C85.1809 37.0345 84.9977 37.0029 84.9733 36.9992C84.9534 36.5853 84.8481 36.3322 84.6233 36.0089C84.2383 35.456 83.5723 34.7962 81.4088 32.4707C80.6534 31.6597 79.4077 31.4771 78.4409 32.1089C74.8315 34.4667 70.2713 35.7986 65.9321 35.5167C64.7132 35.4369 63.8302 36.0337 63.4647 37.022C63.4321 37.0273 63.0704 37.1003 63.0499 37.1052V34.8576H63.0501ZM63.3206 40.0949V43.9937C62.4593 43.6831 61.9132 42.8867 61.9132 42.0009C61.913 41.139 62.5376 40.4312 63.3206 40.0949ZM62.1177 24.3408C62.1177 24.9576 61.8507 25.541 61.3852 25.9412C61.1854 26.1131 60.9577 26.2451 60.7102 26.3351V22.3502C61.5862 22.6681 62.1177 23.4734 62.1177 24.3408ZM49.8814 6.09844C56.0013 6.09844 60.9802 11.0773 60.9802 17.1973V19.3881C60.9139 19.3744 60.7304 19.3426 60.7059 19.3388C60.6843 18.8902 60.555 18.6144 60.2911 18.2576C59.8989 17.7267 59.1759 16.9969 57.1415 14.8101C56.3733 13.9853 55.1257 13.8262 54.1735 14.4484C50.3618 16.9387 45.7378 18.1506 41.5466 17.8504C40.5212 17.7728 39.5558 18.3924 39.1976 19.3613C39.165 19.3666 38.8031 19.4396 38.7827 19.4445V17.1974H38.7825C38.7825 11.0773 43.7616 6.09844 49.8814 6.09844ZM39.0529 22.4343V26.3353C38.1941 26.0236 37.6454 25.2293 37.6454 24.3406C37.6454 23.4836 38.2656 22.7728 39.0529 22.4343ZM36.4427 40.0107C37.2622 40.3089 37.7886 41.024 37.8407 41.8738C37.9064 42.8187 37.3257 43.6732 36.4427 43.9939V40.0107ZM36.307 47.0261C37.6886 46.8532 38.9568 46.1251 39.7884 45.005L42.3505 50.1398C42.3505 50.1398 42.3505 50.1398 42.3507 50.14C42.6501 50.7402 43.1952 51.1777 43.8458 51.3403C44.489 51.5011 45.1771 51.378 45.73 50.9853L45.8868 50.8739L46.489 51.7804L44.9017 61.1587L32.44 56.3323V53.6655H32.4398C34.5146 51.9927 35.8906 49.629 36.307 47.0261ZM25.7285 61.4849L21.94 56.8085V55.4032C23.1666 55.8273 24.4919 56.0255 25.7468 56.0257C25.747 56.0257 25.7474 56.0257 25.7476 56.0257C27.0574 56.0257 28.3621 55.7741 29.5097 55.3425V56.8175L25.7285 61.4849ZM27.4484 66.837L26.9095 67.6481H24.548L24.0091 66.837L25.7289 65.6157L27.4484 66.837ZM31.4412 59.0878L33.9607 60.0636L31.0853 65.8263L30.3052 65.2724C30.3044 65.2718 30.3037 65.271 30.3029 65.2704L27.846 63.5255L31.4412 59.0878ZM17.7154 45.3308V38.4691C22.3656 38.6548 27.174 37.2658 31.0747 34.838C32.3831 36.2412 33.1812 37.0769 33.5126 37.4593C33.5126 41.1064 33.5126 42.5148 33.5126 45.3308C33.5126 49.5911 30.039 53.0956 25.7476 53.0956C20.9697 53.0956 17.7154 49.4068 17.7154 45.3308ZM20.0107 59.0899L23.6068 63.5286L21.1545 65.2704C21.1531 65.2714 21.1521 65.2724 21.1507 65.2733L20.3724 65.8263L17.4968 60.0636L20.0107 59.0899ZM11.6724 93.9018V72.4997C11.6724 71.6907 11.0168 71.0348 10.2076 71.0348C9.39842 71.0348 8.74276 71.6907 8.74276 72.4997V93.9016H3.17675C3.04042 93.9016 2.92988 93.7908 2.92988 93.6549V70.6823C2.92988 65.9774 6.89413 64.1841 7.15077 64.0731L14.7525 61.1261L18.0828 67.8001C18.0828 67.8001 18.0828 67.8001 18.083 67.8003C18.3824 68.4005 18.9275 68.838 19.5783 69.0007C20.2214 69.1614 20.9095 69.0384 21.4625 68.6456L21.6193 68.5343L22.2214 69.4407L18.949 88.7758C18.9464 88.7903 18.9443 88.8049 18.9422 88.8196C18.848 89.5014 19.0599 90.2039 19.5097 90.6994L22.4205 93.9016H11.6724V93.9018ZM21.8892 88.961L25.0003 70.578H26.4572L29.5685 88.961L25.7289 93.185L21.8892 88.961ZM48.5349 93.6547C48.5349 93.7908 48.4243 93.9016 48.2882 93.9016H42.7226V72.4997C42.7226 71.6907 42.0669 71.0348 41.2577 71.0348C40.4486 71.0348 39.7929 71.6907 39.7929 72.4997V93.9016H29.0371L31.9482 90.6991C32.3978 90.2043 32.6097 89.5018 32.5154 88.8196C32.5132 88.8049 32.5111 88.7905 32.5085 88.7758L29.2361 69.4407L29.8382 68.5343L29.9951 68.6456C30.3871 68.9241 30.8511 69.0694 31.322 69.0694C32.1812 69.0694 32.9814 68.588 33.3747 67.8003V67.8001L36.7046 61.1263L44.3111 64.0722C46.5282 65.0366 48.5347 67.5239 48.5347 70.6823V93.6547H48.5349ZM49.9999 65.3593C49.3931 64.3815 48.5853 63.4768 47.6114 62.7048L49.2679 52.9179H50.7247L52.3819 62.7099C51.3821 63.5038 50.5849 64.4167 49.9999 65.3593ZM60.2073 93.9018V72.4997C60.2073 71.6907 59.5516 71.0348 58.7425 71.0348C57.9333 71.0348 57.2776 71.6907 57.2776 72.4997V93.9016H51.7118C51.5757 93.9016 51.4649 93.7908 51.4649 93.6549V70.6823C51.4649 68.9409 52.011 67.337 53.1743 65.9895C53.9499 65.0999 54.9786 64.3796 55.686 64.0731L63.2878 61.1259L66.618 67.8001C66.618 67.8001 66.618 67.8001 66.6182 67.8003C66.9176 68.4005 67.4628 68.838 68.1133 69.0007C68.7565 69.1614 69.4446 69.0384 69.9975 68.6456L70.1544 68.5343L70.7565 69.4407L67.4841 88.7758C67.4815 88.7903 67.4794 88.8049 67.4772 88.8196C67.3831 89.5014 67.595 90.2039 68.0448 90.6994L70.9555 93.9016H60.2073V93.9018ZM70.4241 88.9612L73.5354 70.5782H74.9922L78.1036 88.9612L74.2637 93.1852L70.4241 88.9612Z" fill="white"/>
</g>
<defs>
<clipPath id="clip0">
<rect width="100" height="100" fill="white"/>
</clipPath>
</defs>
</svg>
