<svg width="100" height="100" viewBox="0 0 100 100" fill="none" xmlns="http://www.w3.org/2000/svg">
<path d="M42.1875 7.8125H45.3125V10.9375H42.1875V7.8125Z" fill="white"/>
<path d="M48.4375 7.8125H57.8125V10.9375H48.4375V7.8125Z" fill="white"/>
<path d="M42.1875 89.0625H57.8125V92.1875H42.1875V89.0625Z" fill="white"/>
<path d="M35.9375 40.625C35.9375 32.8719 29.6281 26.5625 21.875 26.5625C14.1219 26.5625 7.8125 32.8719 7.8125 40.625C7.8125 48.3781 14.1219 54.6875 21.875 54.6875C29.6281 54.6875 35.9375 48.3781 35.9375 40.625ZM10.9375 40.625C10.9375 34.5938 15.8438 29.6875 21.875 29.6875C27.9062 29.6875 32.8125 34.5938 32.8125 40.625C32.8125 46.6562 27.9062 51.5625 21.875 51.5625C15.8438 51.5625 10.9375 46.6562 10.9375 40.625Z" fill="white"/>
<path d="M93.75 20.3125H81.25V9.375C81.25 5.06719 77.7453 1.5625 73.4375 1.5625H26.5625C22.2547 1.5625 18.75 5.06719 18.75 9.375V20.5781C9.03125 22.0891 1.5625 30.4891 1.5625 40.625C1.5625 48.4437 6.00938 55.2328 12.5 58.6266V80.4328L18.75 77.9328V90.625C18.75 94.9328 22.2547 98.4375 26.5625 98.4375H73.4375C77.7453 98.4375 81.25 94.9328 81.25 90.625V51.5625H93.75C96.3344 51.5625 98.4375 49.4594 98.4375 46.875V25C98.4375 22.4156 96.3344 20.3125 93.75 20.3125ZM21.875 9.375C21.875 6.79063 23.9781 4.6875 26.5625 4.6875H73.4375C76.0219 4.6875 78.125 6.79063 78.125 9.375V20.3125H75V17.1875C75 15.4641 73.5984 14.0625 71.875 14.0625H28.125C26.4016 14.0625 25 15.4641 25 17.1875V20.5781C23.9781 20.4203 22.9406 20.3125 21.875 20.3125V9.375ZM65.625 51.5625H71.875V82.8125H28.125V79.1828L31.25 80.4328V58.6266C37.7406 55.2328 42.1875 48.4437 42.1875 40.625C42.1875 31.6063 36.275 23.95 28.125 21.3062V17.1875H71.875V20.3125H65.625C63.0406 20.3125 60.9375 22.4156 60.9375 25V46.875C60.9375 49.4594 63.0406 51.5625 65.625 51.5625ZM79.6875 39.0625C77.1031 39.0625 75 36.9594 75 34.375C75 31.7906 77.1031 29.6875 79.6875 29.6875C82.2719 29.6875 84.375 31.7906 84.375 34.375C84.375 36.9594 82.2719 39.0625 79.6875 39.0625ZM78.125 42.1875H81.25C85.0219 42.1875 88.1781 44.8766 88.9047 48.4375H70.4703C71.1969 44.8766 74.3531 42.1875 78.125 42.1875ZM4.6875 40.625C4.6875 31.1484 12.3984 23.4375 21.875 23.4375C31.3516 23.4375 39.0625 31.1484 39.0625 40.625C39.0625 50.1016 31.3516 57.8125 21.875 57.8125C12.3984 57.8125 4.6875 50.1016 4.6875 40.625ZM15.625 59.9437C17.5953 60.5828 19.6938 60.9375 21.875 60.9375C24.0562 60.9375 26.1547 60.5828 28.125 59.9437V75.8172L21.875 73.3172L15.625 75.8172V59.9437ZM78.125 90.625C78.125 93.2094 76.0219 95.3125 73.4375 95.3125H26.5625C23.9781 95.3125 21.875 93.2094 21.875 90.625V76.6828L25 77.9328V82.8125C25 84.5359 26.4016 85.9375 28.125 85.9375H71.875C73.5984 85.9375 75 84.5359 75 82.8125V51.5625H78.125V90.625ZM95.3125 46.875C95.3125 47.7359 94.6109 48.4375 93.75 48.4375H92.0625C91.4969 44.5094 88.8438 41.2531 85.2609 39.8344C86.6422 38.425 87.5 36.5 87.5 34.375C87.5 30.0672 83.9953 26.5625 79.6875 26.5625C75.3797 26.5625 71.875 30.0672 71.875 34.375C71.875 36.5 72.7328 38.425 74.1141 39.8344C70.5312 41.2531 67.8781 44.5094 67.3125 48.4375H65.625C64.7641 48.4375 64.0625 47.7359 64.0625 46.875V25C64.0625 24.1391 64.7641 23.4375 65.625 23.4375H93.75C94.6109 23.4375 95.3125 24.1391 95.3125 25V46.875Z" fill="white"/>
<path d="M65.8875 74.375C65.1391 72.6609 64.1125 70.3125 61.7234 70.3125C59.3359 70.3125 58.3094 72.6594 57.5594 74.3734C57.2734 75.0297 56.6031 76.5625 56.2594 76.5625C55.9125 76.5625 55.2406 75.0281 54.9547 74.3734C54.2031 72.6594 53.175 70.3125 50.7859 70.3125C48.3969 70.3125 47.3688 72.6594 46.6188 74.3734C46.3313 75.0281 45.6594 76.5625 45.3125 76.5625H45.2609C45.0531 73.1281 44.0297 65.625 39.0625 65.625C34.4484 65.625 32.8125 73.2 32.8125 79.6875H35.9375C35.9375 72.9109 37.7578 68.75 39.0625 68.75C41.0953 68.75 42.1828 74.1953 42.1875 78.125L42.1891 79.6875H45.3125C47.7016 79.6875 48.7297 77.3406 49.4797 75.6266C49.7672 74.9719 50.4391 73.4375 50.7859 73.4375C51.1328 73.4375 51.8047 74.9719 52.0906 75.6266C52.8422 77.3406 53.8703 79.6875 56.2594 79.6875C58.6484 79.6875 59.675 77.3406 60.425 75.625C60.7109 74.9703 61.3813 73.4375 61.725 73.4375C62.0688 73.4375 62.7391 74.9703 63.025 75.6266C63.7734 77.3406 64.8 79.6875 67.1875 79.6875H68.75V76.5625H67.1875C66.8438 76.5625 66.175 75.0297 65.8875 74.375Z" fill="white"/>
<path d="M45.3125 20.3125H57.8125V23.4375H45.3125V20.3125Z" fill="white"/>
<path d="M45.3125 26.5625H57.8125V29.6875H45.3125V26.5625Z" fill="white"/>
<path d="M45.3125 32.8125H57.8125V35.9375H45.3125V32.8125Z" fill="white"/>
<path d="M45.3125 39.0625H57.8125V42.1875H45.3125V39.0625Z" fill="white"/>
<path d="M45.3125 45.3125H57.8125V48.4375H45.3125V45.3125Z" fill="white"/>
<path d="M45.3125 51.5625H57.8125V54.6875H45.3125V51.5625Z" fill="white"/>
<path d="M45.3125 57.8125H68.75V60.9375H45.3125V57.8125Z" fill="white"/>
<path d="M65.625 64.0625H68.75V67.1875H65.625V64.0625Z" fill="white"/>
<path d="M45.3125 64.0625H62.5V67.1875H45.3125V64.0625Z" fill="white"/>
</svg>
