<svg width="100" height="100" viewBox="0 0 100 100" fill="none" xmlns="http://www.w3.org/2000/svg">
<g clip-path="url(#clip0)">
<path d="M40.0746 28.0623H58.6799C60.2978 28.0623 61.6095 26.7506 61.6095 25.1326C61.6095 23.5147 60.2978 22.2029 58.6799 22.2029H40.0746C38.4566 22.2029 37.1449 23.5147 37.1449 25.1326C37.1449 26.7506 38.4564 28.0623 40.0746 28.0623Z" fill="white"/>
<path d="M71.4902 0H2.92969C1.31172 0 0 1.31172 0 2.92969V97.0703C0 98.6883 1.31172 100 2.92969 100H71.4902C73.1082 100 74.4199 98.6883 74.4199 97.0703V2.92969C74.4199 1.31172 73.1082 0 71.4902 0ZM68.5605 94.1406H5.85938V5.85938H68.5605V94.1406Z" fill="white"/>
<path d="M100 70.9965V9.94355C100 4.46074 95.5393 0 90.0565 0C84.5735 0 80.1127 4.46074 80.1127 9.94355V70.9963C80.1127 72.5248 81.2838 73.7785 82.7774 73.9125L80.2875 80.7914C80.0258 81.5146 80.0588 82.3117 80.3797 83.0106L87.3938 98.2922C87.8713 99.3328 88.9115 99.9998 90.0565 99.9998C91.2014 99.9998 92.2416 99.3328 92.7191 98.2922L99.733 83.0106C100.054 82.3115 100.087 81.5145 99.8252 80.7914L97.3354 73.9125C98.8289 73.7785 100 72.525 100 70.9965ZM85.9721 68.0668V24.3957H94.1406V68.0666H85.9721V68.0668ZM90.0565 5.85938C92.3084 5.85938 94.1406 7.6916 94.1406 9.94355V18.5363H85.9721V9.94355C85.9721 7.6916 87.8043 5.85938 90.0565 5.85938ZM90.0565 90.0471L86.2057 81.6572L89.0039 73.926H91.1088L93.9072 81.6572L90.0565 90.0471Z" fill="white"/>
<path d="M17.7151 30.7026C18.2645 31.252 19.0096 31.5608 19.7866 31.5608C20.5635 31.5608 21.3088 31.252 21.858 30.7028L30.7571 21.8038C31.9012 20.6596 31.9012 18.8047 30.7571 17.6606C29.6131 16.5165 27.758 16.5165 26.6139 17.6606L19.7866 24.4879L17.6643 22.3653C16.5205 21.2211 14.6655 21.2211 13.5211 22.3653C12.377 23.5094 12.377 25.3643 13.5211 26.5085L17.7151 30.7026Z" fill="white"/>
<path d="M40.0746 45.8367H58.6799C60.2978 45.8367 61.6095 44.525 61.6095 42.907C61.6095 41.2891 60.2978 39.9774 58.6799 39.9774H40.0746C38.4566 39.9774 37.1449 41.2891 37.1449 42.907C37.1449 44.525 38.4564 45.8367 40.0746 45.8367Z" fill="white"/>
<path d="M17.7151 48.4768C18.2645 49.0262 19.0096 49.335 19.7866 49.335C20.5635 49.335 21.3088 49.0262 21.858 48.477L30.7571 39.5779C31.9012 38.4338 31.9012 36.5789 30.7571 35.4348C29.6131 34.2906 27.758 34.2906 26.6139 35.4348L19.7866 42.2621L17.6643 40.1398C16.5205 38.9957 14.6655 38.9957 13.5211 40.1398C12.377 41.284 12.377 43.1389 13.5211 44.283L17.7151 48.4768Z" fill="white"/>
<path d="M40.0746 63.611H58.6799C60.2978 63.611 61.6095 62.2992 61.6095 60.6813C61.6095 59.0633 60.2978 57.7516 58.6799 57.7516H40.0746C38.4566 57.7516 37.1449 59.0633 37.1449 60.6813C37.1449 62.2992 38.4564 63.611 40.0746 63.611Z" fill="white"/>
<path d="M40.0746 82.066H58.6799C60.2978 82.066 61.6095 80.7543 61.6095 79.1364C61.6095 77.5184 60.2978 76.2067 58.6799 76.2067H40.0746C38.4566 76.2067 37.1449 77.5184 37.1449 79.1364C37.1449 80.7543 38.4564 82.066 40.0746 82.066Z" fill="white"/>
<path d="M17.715 66.2511C18.2644 66.8006 19.0096 67.1093 19.7865 67.1093C20.5635 67.1093 21.3088 66.8006 21.858 66.2513L30.757 57.3525C31.9012 56.2084 31.9012 54.3535 30.757 53.2094C29.6131 52.0652 27.758 52.0654 26.6139 53.2094L19.7865 60.0367L17.6642 57.914C16.5205 56.7699 14.6654 56.7699 13.5211 57.914C12.3767 59.0582 12.3769 60.9131 13.5211 62.0572L17.715 66.2511Z" fill="white"/>
</g>
<defs>
<clipPath id="clip0">
<rect width="100" height="100" fill="white"/>
</clipPath>
</defs>
</svg>
