<svg width="100" height="100" viewBox="0 0 100 100" fill="none" xmlns="http://www.w3.org/2000/svg">
<g clip-path="url(#clip0)">
<path d="M98.7781 92.8872L70.3409 64.45C75.8493 57.6459 79.1658 49.0001 79.1658 39.5836C79.1658 17.7588 61.4076 0.000610352 39.5828 0.000610352C17.758 0.000610352 0 17.7586 0 39.5834C0 61.4082 17.7582 79.1664 39.583 79.1664C48.9995 79.1664 57.6453 75.8499 64.4494 70.3415L92.8866 98.7787C93.6991 99.5912 94.7657 99.9996 95.8325 99.9996C96.8992 99.9996 97.9658 99.5912 98.7783 98.7787C100.407 97.1497 100.407 94.5163 98.7781 92.8872ZM39.583 70.8331C22.3498 70.8331 8.33332 56.8167 8.33332 39.5834C8.33332 22.3502 22.3498 8.33373 39.583 8.33373C56.8162 8.33373 70.8327 22.3502 70.8327 39.5834C70.8327 56.8167 56.816 70.8331 39.583 70.8331Z" fill="white"/>
</g>
<defs>
<clipPath id="clip0">
<rect width="100" height="100" fill="white"/>
</clipPath>
</defs>
</svg>
