<svg width="100" height="100" viewBox="0 0 100 100" fill="none" xmlns="http://www.w3.org/2000/svg">
<g clip-path="url(#clip0)">
<path d="M92.2961 62.8194C90.9204 62.8194 89.8055 63.9343 89.8055 65.3099V87.423C89.8007 91.5479 86.4589 94.8906 82.334 94.8945H12.4526C8.32767 94.8906 4.9859 91.5479 4.98104 87.423V22.5226C4.9859 18.3987 8.32767 15.0559 12.4526 15.051H34.5657C35.9413 15.051 37.0562 13.9361 37.0562 12.5605C37.0562 11.1859 35.9413 10.07 34.5657 10.07H12.4526C5.57837 10.0778 0.00778287 15.6484 0 22.5226V87.4239C0.00778287 94.2982 5.57837 99.8688 12.4526 99.8765H82.334C89.2082 99.8688 94.7788 94.2982 94.7866 87.4239V65.3099C94.7866 63.9343 93.6717 62.8194 92.2961 62.8194Z" fill="white"/>
<path d="M93.8001 3.66182C89.4232 -0.715073 82.3272 -0.715073 77.9503 3.66182L33.5179 48.0942C33.2134 48.3987 32.9935 48.7762 32.8787 49.1906L27.0357 70.2851C26.7954 71.15 27.0396 72.0762 27.6739 72.7114C28.3092 73.3457 29.2353 73.5899 30.1002 73.3506L51.1947 67.5066C51.6091 67.3919 51.9866 67.172 52.2911 66.8675L96.7226 22.4341C101.093 18.0543 101.093 10.9641 96.7226 6.58429L93.8001 3.66182ZM38.9445 49.7131L75.309 13.3476L87.0368 25.0754L50.6713 61.4409L38.9445 49.7131ZM36.6018 54.4139L45.9714 63.7845L33.011 67.3753L36.6018 54.4139ZM93.2008 18.9124L90.5595 21.5537L78.8307 9.82488L81.473 7.18357C83.9042 4.75239 87.8462 4.75239 90.2774 7.18357L93.2008 10.106C95.6281 12.5401 95.6281 16.4792 93.2008 18.9124Z" fill="white"/>
</g>
<defs>
<clipPath id="clip0">
<rect width="100" height="100" fill="white"/>
</clipPath>
</defs>
</svg>
